# xmcd
#
# Track frame offsets: 
#        150
#        14833
#        30130
#        44968
#        66375
#        79608
#        97178
#        116140
#        130493
#        154415
#        171515
#        186965
#        200285
#        215885
#
# Disc length: 3064 seconds
#
# Revision: 1
# Processed by: cddbd v1.5.2PL0 Copyright (c) Steve Scherf et al.
# Submitted via: ExactAudioCopy v1.0b1
#
DISCID=dd0bf60e
DTITLE=The Emotions - Sunshine
DYEAR=1977
DGENRE=Soul
TTITLE0=Shouting Out Love
TTITLE1=Gee Whiz (Look At His Eyes)
TTITLE2=I Really Miss You
TTITLE3=Ain't No Sunshine
TTITLE4=Runnin' Back (And Forth)
TTITLE5=Anyway You Look At It
TTITLE6=Baby, I'm Through
TTITLE7=Innocent
TTITLE8=Put A Little Love Away
TTITLE9=I've Fallen In Love
TTITLE10=I Wanna Come Back
TTITLE11=Peace Be Still
TTITLE12=What Do The Lonely Do At Christmas
TTITLE13=I Call This Loving You
EXTD=
EXTT0=
EXTT1=
EXTT2=
EXTT3=
EXTT4=
EXTT5=
EXTT6=
EXTT7=
EXTT8=
EXTT9=
EXTT10=
EXTT11=
EXTT12=
EXTT13=
PLAYORDER=
